<svg width="24" height="24" viewBox="0 0 24 24" fill="none" xmlns="http://www.w3.org/2000/svg">
<g id="Frame 4">
<g id="chat_bubble">
<mask id="mask0_903_404" style="mask-type:alpha" maskUnits="userSpaceOnUse" x="4" y="7" width="17" height="17">
<rect id="Bounding box" x="4" y="7" width="16.92" height="16.92" fill="#D9D9D9"/>
</mask>
<g mask="url(#mask0_903_404)">
<path id="chat_bubble_2" d="M4.95483 23.4591V9.80902C4.95483 9.39194 5.10347 9.03476 5.40074 8.73749C5.6975 8.44072 6.05443 8.29234 6.47151 8.29234H18.605C19.022 8.29234 19.3792 8.44072 19.6765 8.73749C19.9733 9.03476 20.1216 9.39194 20.1216 9.80902V18.9091C20.1216 19.3262 19.9733 19.6834 19.6765 19.9806C19.3792 20.2774 19.022 20.4258 18.605 20.4258H7.9882L4.95483 23.4591ZM6.47151 19.8002L7.36256 18.9091H18.605V9.80902H6.47151V19.8002Z" fill="#308AFF" fill-opacity="0.9"/>
</g>
</g>
</g>
</svg>
