<svg width="17" height="17" viewBox="0 0 17 17" fill="none" xmlns="http://www.w3.org/2000/svg">
<path id="Vector" d="M15.8974 7.88513L15.6439 8.27951L16.0212 8.5578C16.1783 8.67372 16.2523 8.73734 16.3069 8.82896C16.3585 8.91576 16.42 9.07826 16.42 9.42256C16.42 9.73637 16.3432 9.9117 16.2598 10.0243C16.1695 10.1462 16.0365 10.2422 15.8446 10.3422L15.3805 10.5842L15.6435 11.0368C15.7582 11.2342 15.7962 11.4749 15.7458 11.7051L15.7452 11.7083C15.6505 12.1547 15.2397 12.5273 14.8947 12.63L14.2814 12.8127L14.607 13.3636C14.6911 13.5061 14.7235 13.6095 14.7287 13.694C14.7335 13.771 14.7185 13.8736 14.6329 14.0218C14.4887 14.2641 14.4009 14.35 14.269 14.4093C14.1013 14.4847 13.805 14.54 13.1798 14.54H8.01474C6.42829 14.54 5.84316 13.6446 5.84316 13.16V8.7702C5.84316 7.78579 6.40306 6.8361 7.06576 5.84072C7.12218 5.75598 7.17949 5.67062 7.23706 5.58488C7.50271 5.18925 7.77367 4.78572 7.98604 4.39873C8.24344 3.9297 8.45596 3.41527 8.45596 2.8858V2.86228L8.45375 2.83886L8.26569 0.844389C8.26536 0.836755 8.26502 0.817865 8.26642 0.78967C8.26797 0.758419 8.27122 0.724647 8.27605 0.693855C8.27648 0.691148 8.2769 0.688541 8.27732 0.686032C8.37533 0.619935 8.61658 0.5 9.00144 0.5C9.30107 0.5 9.48247 0.553716 9.72671 0.677348L9.72775 0.677871C10.0994 0.864881 10.3565 1.20398 10.524 1.6531C10.6928 2.10572 10.7563 2.63596 10.7563 3.1302C10.7563 3.17156 10.7342 3.29541 10.6628 3.52045C10.5971 3.72787 10.5066 3.97078 10.4085 4.22572C10.3791 4.30208 10.3488 4.38001 10.3185 4.45799C10.2501 4.63409 10.1816 4.81045 10.1229 4.96954C10.041 5.19154 9.96159 5.42296 9.92784 5.60176L9.78541 6.35614L10.5328 6.18144L10.5328 6.18143L10.5329 6.18142L10.533 6.1814L10.5331 6.18136L10.5355 6.18081L10.5468 6.17824L10.5947 6.16768C10.6376 6.1584 10.7019 6.14488 10.7852 6.1285C10.9517 6.09571 11.1936 6.05152 11.4909 6.00684C12.0867 5.91729 12.8986 5.82676 13.7692 5.82039C14.6995 5.81486 15.3872 5.90635 15.8269 6.10402C16.0381 6.19898 16.1696 6.30869 16.2499 6.42363C16.3277 6.53494 16.3808 6.68439 16.3808 6.90336C16.3808 7.02451 16.3297 7.18198 16.2254 7.37292C16.1523 7.50665 16.0796 7.61376 16.006 7.72212C15.97 7.77507 15.9339 7.82833 15.8974 7.88513ZM1.06863 8.02H2.49347C2.63529 8.02 2.77715 8.07922 2.88613 8.19426C2.99599 8.31021 3.0621 8.47298 3.0621 8.648V15.792C3.0621 15.967 2.99599 16.1298 2.88613 16.2457C2.77715 16.3608 2.63529 16.42 2.49347 16.42H1.06863C0.926812 16.42 0.784955 16.3608 0.675971 16.2457C0.566119 16.1298 0.5 15.967 0.5 15.792V8.648C0.5 8.47298 0.566119 8.31021 0.675971 8.19426C0.784954 8.07922 0.926811 8.02 1.06863 8.02Z" fill="white" stroke="#308AFF"/>
</svg>
