<svg width="17" height="17" viewBox="0 0 17 17" fill="none" xmlns="http://www.w3.org/2000/svg">
<path id="Vector" d="M15.981 8.21747L16.1077 8.02029C16.1382 7.97284 16.1711 7.92429 16.2054 7.87372C16.2823 7.76044 16.366 7.63696 16.4448 7.49276C16.5565 7.28825 16.6308 7.08661 16.6308 6.90336C16.6308 6.64065 16.5659 6.4395 16.4549 6.28047C16.3425 6.11963 16.1707 5.98447 15.9294 5.876C15.4383 5.65519 14.705 5.5648 13.7673 5.5704L15.981 8.21747ZM15.981 8.21747L16.1696 8.35662M15.981 8.21747L16.1696 8.35662M16.1696 8.35662C16.3265 8.47239 16.4388 8.56177 16.5217 8.70112C16.6032 8.83805 16.67 9.04878 16.67 9.42256C16.67 9.78157 16.5806 10.0112 16.4606 10.1731C16.3372 10.3397 16.1652 10.457 15.9602 10.5639L15.7281 10.6849M16.1696 8.35662L15.7281 10.6849M15.7281 10.6849L15.8596 10.9112M15.7281 10.6849L15.8596 10.9112M15.8596 10.9112C16.0062 11.1634 16.0537 11.468 15.9901 11.7586L15.9897 11.7602M15.8596 10.9112L15.9897 11.7602M15.9897 11.7602C15.8738 12.3067 15.3879 12.744 14.9661 12.8696L14.6594 12.961M15.9897 11.7602L14.6594 12.961M14.6594 12.961L14.8222 13.2364M14.6594 12.961L14.8222 13.2364M14.8222 13.2364C14.9182 13.3988 14.9697 13.541 14.9783 13.6786C14.9865 13.8123 14.9555 13.9637 14.8485 14.1483C14.694 14.4082 14.573 14.5468 14.3715 14.6374C14.1519 14.736 13.8094 14.79 13.1798 14.79H8.01474C6.34167 14.79 5.59316 13.8291 5.59316 13.16V8.7702C5.59316 7.69989 6.19971 6.69043 6.85766 5.70217C6.91547 5.61534 6.97373 5.52855 7.03188 5.44194C7.29734 5.04653 7.56043 4.65464 7.76688 4.27845C8.01805 3.82076 8.20596 3.35146 8.20596 2.8858V2.87404L8.20486 2.86233L8.01636 0.863207C8.01371 0.822801 8.01602 0.738381 8.02907 0.65513C8.03558 0.613582 8.04365 0.579827 8.05178 0.556307C8.05384 0.550367 8.05557 0.546013 8.05687 0.543006C8.15377 0.447646 8.47631 0.25 9.00144 0.25C9.34539 0.25 9.56522 0.315398 9.83962 0.454294L9.84014 0.454555C10.2846 0.678251 10.5762 1.07763 10.7582 1.56574C10.9409 2.05561 11.0063 2.618 11.0063 3.1302C11.0063 3.21457 10.9722 3.37196 10.9012 3.59599C10.833 3.81121 10.7401 4.0602 10.6418 4.31551C10.6117 4.39361 10.5811 4.47253 10.5506 4.55103C10.4826 4.72608 10.4154 4.89905 10.3575 5.05608C10.275 5.27976 10.2028 5.49271 10.1735 5.64814L10.1023 6.02533L10.476 5.93797L14.8222 13.2364ZM10.4761 5.93796L10.4761 5.93795L10.4767 5.93781L10.4796 5.93715L10.4919 5.93435L10.5419 5.92333C10.5862 5.91374 10.652 5.89991 10.7369 5.88321C10.9066 5.84979 11.1522 5.80493 11.4537 5.75962C12.0572 5.66891 12.8814 5.57688 13.7672 5.5704L10.4761 5.93796ZM1.06863 7.77H2.49347C2.70609 7.77 2.91293 7.85903 3.06762 8.02232C3.22275 8.18607 3.3121 8.41091 3.3121 8.648V15.792C3.3121 16.0291 3.22275 16.2539 3.06762 16.4177C2.91293 16.581 2.70609 16.67 2.49347 16.67H1.06863C0.856012 16.67 0.649178 16.581 0.494484 16.4177C0.339353 16.2539 0.25 16.0291 0.25 15.792V8.648C0.25 8.41091 0.339353 8.18607 0.494483 8.02232C0.649178 7.85903 0.856012 7.77 1.06863 7.77Z" fill="#308AFF" stroke="#308AFF" stroke-width="0.5"/>
</svg>
