<svg width="17" height="14" viewBox="0 0 17 14" fill="none" xmlns="http://www.w3.org/2000/svg">
<path id="Arrow" d="M0.616859 13.536C0.55193 13.5363 0.487392 13.5264 0.425862 13.5067C0.297186 13.4669 0.185838 13.3879 0.109005 13.2819C0.0321714 13.1759 -0.0058755 13.0488 0.000736635 12.9202C0.000736635 12.8322 0.635343 4.31685 9.60609 3.64829V0.586973C9.60599 0.470378 9.64239 0.356398 9.71066 0.259593C9.77894 0.162787 9.87597 0.0875485 9.98938 0.0434875C10.1028 -0.000573442 10.2274 -0.0114571 10.3474 0.0122265C10.4673 0.0359102 10.5771 0.0930861 10.6627 0.176452L16.7439 6.08796C16.8568 6.19759 16.92 6.34497 16.92 6.49848C16.92 6.65199 16.8568 6.79938 16.7439 6.909L10.6627 12.8205C10.5771 12.9039 10.4673 12.9611 10.3474 12.9847C10.2274 13.0084 10.1028 12.9975 9.98938 12.9535C9.87597 12.9094 9.77894 12.8342 9.71066 12.7374C9.64239 12.6406 9.60599 12.5266 9.60609 12.41V9.40732C3.61738 9.62431 1.16213 13.2193 1.13748 13.2633C1.0819 13.3468 1.00502 13.4157 0.913994 13.4633C0.82297 13.511 0.720756 13.536 0.616859 13.536ZM10.8383 2.0238V4.19663C10.8384 4.34868 10.7765 4.49482 10.6656 4.60423C10.5546 4.71364 10.4034 4.77777 10.2438 4.78309C4.4399 4.98542 2.36357 8.66545 1.61806 11.0318C3.15837 9.76506 5.90319 8.21681 10.1852 8.21681H10.213C10.3764 8.21681 10.5331 8.27859 10.6486 8.38858C10.7642 8.49856 10.8291 8.64773 10.8291 8.80327V10.9761L15.45 6.50141L10.8383 2.0238Z" fill="#308AFF" fill-opacity="0.9"/>
</svg>
